%TF.GenerationSoftware,KiCad,Pcbnew,8.0.5*%
%TF.CreationDate,2024-11-03T12:33:07+01:00*%
%TF.ProjectId,Control board,436f6e74-726f-46c2-9062-6f6172642e6b,rev?*%
%TF.SameCoordinates,Original*%
%TF.FileFunction,Soldermask,Bot*%
%TF.FilePolarity,Negative*%
%FSLAX46Y46*%
G04 Gerber Fmt 4.6, Leading zero omitted, Abs format (unit mm)*
G04 Created by KiCad (PCBNEW 8.0.5) date 2024-11-03 12:33:07*
%MOMM*%
%LPD*%
G01*
G04 APERTURE LIST*
G04 Aperture macros list*
%AMRoundRect*
0 Rectangle with rounded corners*
0 $1 Rounding radius*
0 $2 $3 $4 $5 $6 $7 $8 $9 X,Y pos of 4 corners*
0 Add a 4 corners polygon primitive as box body*
4,1,4,$2,$3,$4,$5,$6,$7,$8,$9,$2,$3,0*
0 Add four circle primitives for the rounded corners*
1,1,$1+$1,$2,$3*
1,1,$1+$1,$4,$5*
1,1,$1+$1,$6,$7*
1,1,$1+$1,$8,$9*
0 Add four rect primitives between the rounded corners*
20,1,$1+$1,$2,$3,$4,$5,0*
20,1,$1+$1,$4,$5,$6,$7,0*
20,1,$1+$1,$6,$7,$8,$9,0*
20,1,$1+$1,$8,$9,$2,$3,0*%
G04 Aperture macros list end*
%ADD10C,1.462000*%
%ADD11RoundRect,0.102000X0.629000X0.629000X-0.629000X0.629000X-0.629000X-0.629000X0.629000X-0.629000X0*%
%ADD12C,2.300000*%
%ADD13C,3.200000*%
%ADD14C,2.000000*%
%ADD15RoundRect,0.250000X-0.725000X0.600000X-0.725000X-0.600000X0.725000X-0.600000X0.725000X0.600000X0*%
%ADD16O,1.950000X1.700000*%
%ADD17RoundRect,0.250000X0.725000X-0.600000X0.725000X0.600000X-0.725000X0.600000X-0.725000X-0.600000X0*%
%ADD18RoundRect,0.250000X-0.750000X0.600000X-0.750000X-0.600000X0.750000X-0.600000X0.750000X0.600000X0*%
%ADD19O,2.000000X1.700000*%
%ADD20RoundRect,0.102000X0.754000X0.754000X-0.754000X0.754000X-0.754000X-0.754000X0.754000X-0.754000X0*%
%ADD21C,1.712000*%
%ADD22RoundRect,0.102000X0.765000X0.765000X-0.765000X0.765000X-0.765000X-0.765000X0.765000X-0.765000X0*%
%ADD23C,1.734000*%
%ADD24RoundRect,0.250000X0.600000X0.750000X-0.600000X0.750000X-0.600000X-0.750000X0.600000X-0.750000X0*%
%ADD25O,1.700000X2.000000*%
%ADD26RoundRect,0.102000X-0.754000X-0.754000X0.754000X-0.754000X0.754000X0.754000X-0.754000X0.754000X0*%
%ADD27R,1.905000X2.000000*%
%ADD28O,1.905000X2.000000*%
%ADD29RoundRect,0.250000X-0.600000X-0.725000X0.600000X-0.725000X0.600000X0.725000X-0.600000X0.725000X0*%
%ADD30O,1.700000X1.950000*%
G04 APERTURE END LIST*
D10*
%TO.C,J301*%
X124500000Y-22200000D03*
X122500000Y-22200000D03*
X120500000Y-22200000D03*
X118500000Y-22200000D03*
X116500000Y-22200000D03*
X114500000Y-22200000D03*
X112500000Y-22200000D03*
X110500000Y-22200000D03*
X108500000Y-22200000D03*
X106500000Y-22200000D03*
X104500000Y-22200000D03*
X102500000Y-22200000D03*
X100500000Y-22200000D03*
X124500000Y-24200000D03*
X122500000Y-24200000D03*
X120500000Y-24200000D03*
X118500000Y-24200000D03*
X116500000Y-24200000D03*
X114500000Y-24200000D03*
X112500000Y-24200000D03*
X110500000Y-24200000D03*
X108500000Y-24200000D03*
X106500000Y-24200000D03*
X104500000Y-24200000D03*
X102500000Y-24200000D03*
D11*
X100500000Y-24200000D03*
D12*
X97000000Y-23300000D03*
X128000000Y-23300000D03*
%TD*%
D13*
%TO.C,H501*%
X250500000Y-16500000D03*
%TD*%
D14*
%TO.C,J501*%
X81445100Y-30700000D03*
X81445100Y-22500001D03*
X76445100Y-30700000D03*
X76445100Y-22500001D03*
X71445099Y-30700000D03*
X71445099Y-22500001D03*
X66445099Y-30700000D03*
X66445099Y-22500001D03*
%TD*%
D15*
%TO.C,J504*%
X248025000Y-105250000D03*
D16*
X248025000Y-107750000D03*
X248025000Y-110250000D03*
X248025000Y-112750000D03*
%TD*%
D17*
%TO.C,J402*%
X108570000Y-93560000D03*
D16*
X108570000Y-91060000D03*
X108570000Y-88560000D03*
X108570000Y-86060000D03*
%TD*%
D17*
%TO.C,J405*%
X107800000Y-127290000D03*
D16*
X107800000Y-124790000D03*
X107800000Y-122290000D03*
X107800000Y-119790000D03*
%TD*%
D18*
%TO.C,J605*%
X60740000Y-92000000D03*
D19*
X60740000Y-94500000D03*
%TD*%
D20*
%TO.C,U504*%
X238350000Y-145390000D03*
D21*
X238350000Y-142850000D03*
X238350000Y-140310000D03*
X238350000Y-137770000D03*
X238350000Y-135230000D03*
X238350000Y-132690000D03*
X238350000Y-130150000D03*
X238350000Y-127610000D03*
X225650000Y-145390000D03*
X225650000Y-142850000D03*
X225650000Y-140310000D03*
X225650000Y-137770000D03*
X225650000Y-135230000D03*
X225650000Y-132690000D03*
X225650000Y-130150000D03*
X225650000Y-127610000D03*
X230730000Y-127610000D03*
X228190000Y-127610000D03*
%TD*%
D17*
%TO.C,J403*%
X125000000Y-93000000D03*
D16*
X125000000Y-90500000D03*
X125000000Y-88000000D03*
X125000000Y-85500000D03*
%TD*%
D22*
%TO.C,U301*%
X140100000Y-42310000D03*
D23*
X140100000Y-39770000D03*
X140100000Y-37230000D03*
X140100000Y-34690000D03*
X98880000Y-34690000D03*
X98880000Y-37230000D03*
X98880000Y-39770000D03*
X98880000Y-42310000D03*
%TD*%
D13*
%TO.C,H504*%
X55500000Y-17000000D03*
%TD*%
D24*
%TO.C,J603*%
X227250000Y-22525000D03*
D25*
X224750000Y-22525000D03*
%TD*%
D20*
%TO.C,U502*%
X237850000Y-85390000D03*
D21*
X237850000Y-82850000D03*
X237850000Y-80310000D03*
X237850000Y-77770000D03*
X237850000Y-75230000D03*
X237850000Y-72690000D03*
X237850000Y-70150000D03*
X237850000Y-67610000D03*
X225150000Y-85390000D03*
X225150000Y-82850000D03*
X225150000Y-80310000D03*
X225150000Y-77770000D03*
X225150000Y-75230000D03*
X225150000Y-72690000D03*
X225150000Y-70150000D03*
X225150000Y-67610000D03*
X230230000Y-67610000D03*
X227690000Y-67610000D03*
%TD*%
D18*
%TO.C,J609*%
X114110000Y-49100000D03*
D19*
X114110000Y-51600000D03*
%TD*%
D21*
%TO.C,U201*%
X209630000Y-127150000D03*
X207090000Y-127150000D03*
X209630000Y-124610000D03*
X207090000Y-124610000D03*
X209630000Y-122070000D03*
X207090000Y-122070000D03*
X209630000Y-119530000D03*
X207090000Y-119530000D03*
X209630000Y-116990000D03*
X207090000Y-116990000D03*
X209630000Y-114450000D03*
X207090000Y-114450000D03*
X209630000Y-111910000D03*
X207090000Y-111910000D03*
X209630000Y-109370000D03*
X207090000Y-109370000D03*
X209630000Y-106830000D03*
X207090000Y-106830000D03*
X209630000Y-104290000D03*
X207090000Y-104290000D03*
X209630000Y-101750000D03*
X207090000Y-101750000D03*
X209630000Y-99210000D03*
X207090000Y-99210000D03*
X209630000Y-96670000D03*
X207090000Y-96670000D03*
X209630000Y-94130000D03*
X207090000Y-94130000D03*
X209630000Y-91590000D03*
X207090000Y-91590000D03*
X209630000Y-89050000D03*
X207090000Y-89050000D03*
X209630000Y-86510000D03*
D26*
X207090000Y-86510000D03*
D21*
X163910000Y-127150000D03*
X161370000Y-127150000D03*
X163910000Y-124610000D03*
X161370000Y-124610000D03*
X163910000Y-122070000D03*
X161370000Y-122070000D03*
X163910000Y-119530000D03*
X161370000Y-119530000D03*
X163910000Y-116990000D03*
X161370000Y-116990000D03*
X163910000Y-114450000D03*
X161370000Y-114450000D03*
X163910000Y-111910000D03*
X161370000Y-111910000D03*
X163910000Y-109370000D03*
X161370000Y-109370000D03*
X163910000Y-106830000D03*
X161370000Y-106830000D03*
X163910000Y-104290000D03*
X161370000Y-104290000D03*
X163910000Y-101750000D03*
X161370000Y-101750000D03*
X163910000Y-99210000D03*
X161370000Y-99210000D03*
X163910000Y-96670000D03*
X161370000Y-96670000D03*
X163910000Y-94130000D03*
X161370000Y-94130000D03*
X163910000Y-91590000D03*
D26*
X161370000Y-91590000D03*
D21*
X163910000Y-86510000D03*
X161370000Y-86510000D03*
X163910000Y-83970000D03*
X161370000Y-83970000D03*
X163910000Y-81430000D03*
X161370000Y-81430000D03*
X163910000Y-78890000D03*
X161370000Y-78890000D03*
X163910000Y-76350000D03*
X161370000Y-76350000D03*
X163910000Y-73810000D03*
X161370000Y-73810000D03*
X163910000Y-71270000D03*
X161370000Y-71270000D03*
X163910000Y-68730000D03*
D26*
X161370000Y-68730000D03*
D21*
X209630000Y-82446000D03*
X207090000Y-82446000D03*
X209630000Y-79906000D03*
X207090000Y-79906000D03*
X209630000Y-77366000D03*
X207090000Y-77366000D03*
X209630000Y-74826000D03*
X207090000Y-74826000D03*
X209630000Y-72286000D03*
X207090000Y-72286000D03*
X209630000Y-69746000D03*
X207090000Y-69746000D03*
X209630000Y-67206000D03*
X207090000Y-67206000D03*
X209630000Y-64666000D03*
X207090000Y-64666000D03*
X209630000Y-62126000D03*
X207090000Y-62126000D03*
X209630000Y-59586000D03*
D26*
X207090000Y-59586000D03*
D13*
X209630000Y-56030000D03*
X208360000Y-130960000D03*
X194390000Y-106830000D03*
X162640000Y-130960000D03*
X161370000Y-54760000D03*
%TD*%
D15*
%TO.C,J505*%
X248000000Y-136500000D03*
D16*
X248000000Y-139000000D03*
X248000000Y-141500000D03*
X248000000Y-144000000D03*
%TD*%
D13*
%TO.C,H502*%
X250500000Y-161500000D03*
%TD*%
D18*
%TO.C,J602*%
X60240000Y-65000000D03*
D19*
X60240000Y-67500000D03*
%TD*%
D15*
%TO.C,J502*%
X247000000Y-47000000D03*
D16*
X247000000Y-49500000D03*
X247000000Y-52000000D03*
X247000000Y-54500000D03*
%TD*%
D17*
%TO.C,J407*%
X107290000Y-145080000D03*
D16*
X107290000Y-142580000D03*
X107290000Y-140080000D03*
X107290000Y-137580000D03*
%TD*%
D18*
%TO.C,J606*%
X113860000Y-76230000D03*
D19*
X113860000Y-78730000D03*
%TD*%
D27*
%TO.C,Q601*%
X234420000Y-22000000D03*
D28*
X236960000Y-22000000D03*
X239500000Y-22000000D03*
%TD*%
D18*
%TO.C,J607*%
X114110000Y-57740000D03*
D19*
X114110000Y-60240000D03*
%TD*%
D20*
%TO.C,U501*%
X237850000Y-56390000D03*
D21*
X237850000Y-53850000D03*
X237850000Y-51310000D03*
X237850000Y-48770000D03*
X237850000Y-46230000D03*
X237850000Y-43690000D03*
X237850000Y-41150000D03*
X237850000Y-38610000D03*
X225150000Y-56390000D03*
X225150000Y-53850000D03*
X225150000Y-51310000D03*
X225150000Y-48770000D03*
X225150000Y-46230000D03*
X225150000Y-43690000D03*
X225150000Y-41150000D03*
X225150000Y-38610000D03*
X230230000Y-38610000D03*
X227690000Y-38610000D03*
%TD*%
D18*
%TO.C,J601*%
X61500000Y-140500000D03*
D19*
X61500000Y-143000000D03*
%TD*%
D18*
%TO.C,J608*%
X114110000Y-66860000D03*
D19*
X114110000Y-69360000D03*
%TD*%
D17*
%TO.C,J401*%
X125500000Y-110000000D03*
D16*
X125500000Y-107500000D03*
X125500000Y-105000000D03*
X125500000Y-102500000D03*
%TD*%
D18*
%TO.C,J604*%
X61240000Y-118000000D03*
D19*
X61240000Y-120500000D03*
%TD*%
D29*
%TO.C,J406*%
X189000000Y-18500000D03*
D30*
X191500000Y-18500000D03*
X194000000Y-18500000D03*
X196500000Y-18500000D03*
X199000000Y-18500000D03*
X201500000Y-18500000D03*
%TD*%
D17*
%TO.C,J404*%
X108140000Y-108800000D03*
D16*
X108140000Y-106300000D03*
X108140000Y-103800000D03*
X108140000Y-101300000D03*
%TD*%
D13*
%TO.C,H503*%
X55500000Y-161500000D03*
%TD*%
D15*
%TO.C,J503*%
X247500000Y-76000000D03*
D16*
X247500000Y-78500000D03*
X247500000Y-81000000D03*
X247500000Y-83500000D03*
%TD*%
D20*
%TO.C,U503*%
X237850000Y-115390000D03*
D21*
X237850000Y-112850000D03*
X237850000Y-110310000D03*
X237850000Y-107770000D03*
X237850000Y-105230000D03*
X237850000Y-102690000D03*
X237850000Y-100150000D03*
X237850000Y-97610000D03*
X225150000Y-115390000D03*
X225150000Y-112850000D03*
X225150000Y-110310000D03*
X225150000Y-107770000D03*
X225150000Y-105230000D03*
X225150000Y-102690000D03*
X225150000Y-100150000D03*
X225150000Y-97610000D03*
X230230000Y-97610000D03*
X227690000Y-97610000D03*
%TD*%
M02*
