M48
; DRILL file {KiCad 8.0.5} date 2024-11-03T12:33:09+0100
; FORMAT={-:-/ absolute / inch / decimal}
; #@! TF.CreationDate,2024-11-03T12:33:09+01:00
; #@! TF.GenerationSoftware,Kicad,Pcbnew,8.0.5
; #@! TF.FileFunction,Plated,1,2,PTH
FMAT,2
INCH
; #@! TA.AperFunction,Plated,PTH,ViaDrill
T1C0.0118
; #@! TA.AperFunction,Plated,PTH,ComponentDrill
T2C0.0295
; #@! TA.AperFunction,Plated,PTH,ComponentDrill
T3C0.0374
; #@! TA.AperFunction,Plated,PTH,ComponentDrill
T4C0.0394
; #@! TA.AperFunction,Plated,PTH,ComponentDrill
T5C0.0402
; #@! TA.AperFunction,Plated,PTH,ComponentDrill
T6C0.0433
; #@! TA.AperFunction,Plated,PTH,ComponentDrill
T7C0.0512
%
G90
G05
T1
X4.0028Y-1.1461
X4.0854Y-4.3224
X4.4303Y-1.1185
X4.9693Y-1.3909
X5.3024Y-1.7319
X5.7949Y-1.4846
X6.7268Y-3.626
X6.7669Y-1.9768
X7.674Y-1.3685
X8.0004Y-0.9661
X8.6539Y-3.2047
T2
X3.9567Y-0.874
X3.9567Y-0.9528
X4.0354Y-0.874
X4.0354Y-0.9528
X4.1142Y-0.874
X4.1142Y-0.9528
X4.1929Y-0.874
X4.1929Y-0.9528
X4.2717Y-0.874
X4.2717Y-0.9528
X4.3504Y-0.874
X4.3504Y-0.9528
X4.4291Y-0.874
X4.4291Y-0.9528
X4.5079Y-0.874
X4.5079Y-0.9528
X4.5866Y-0.874
X4.5866Y-0.9528
X4.6654Y-0.874
X4.6654Y-0.9528
X4.7441Y-0.874
X4.7441Y-0.9528
X4.8228Y-0.874
X4.8228Y-0.9528
X4.9016Y-0.874
X4.9016Y-0.9528
T3
X4.224Y-5.4165
X4.224Y-5.515
X4.224Y-5.6134
X4.224Y-5.7118
X4.2441Y-4.7161
X4.2441Y-4.8146
X4.2441Y-4.913
X4.2441Y-5.0114
X4.2575Y-3.9882
X4.2575Y-4.0866
X4.2575Y-4.185
X4.2575Y-4.2835
X4.2744Y-3.3882
X4.2744Y-3.4866
X4.2744Y-3.585
X4.2744Y-3.6835
X4.9213Y-3.3661
X4.9213Y-3.4646
X4.9213Y-3.563
X4.9213Y-3.6614
X4.9409Y-4.0354
X4.9409Y-4.1339
X4.9409Y-4.2323
X4.9409Y-4.3307
X7.4409Y-0.7283
X7.5394Y-0.7283
X7.6378Y-0.7283
X7.7362Y-0.7283
X7.8346Y-0.7283
X7.9331Y-0.7283
X9.7244Y-1.8504
X9.7244Y-1.9488
X9.7244Y-2.0472
X9.7244Y-2.1457
X9.7441Y-2.9921
X9.7441Y-3.0906
X9.7441Y-3.189
X9.7441Y-3.2874
X9.7638Y-5.374
X9.7638Y-5.4724
X9.7638Y-5.5709
X9.7638Y-5.6693
X9.7648Y-4.1437
X9.7648Y-4.2421
X9.7648Y-4.3406
X9.7648Y-4.439
T4
X2.3717Y-2.5591
X2.3717Y-2.6575
X2.3913Y-3.622
X2.3913Y-3.7205
X2.411Y-4.6457
X2.411Y-4.7441
X2.4213Y-5.5315
X2.4213Y-5.6299
X4.4827Y-3.0012
X4.4827Y-3.0996
X4.4925Y-1.9331
X4.4925Y-2.0315
X4.4925Y-2.2732
X4.4925Y-2.3717
X4.4925Y-2.6323
X4.4925Y-2.7307
X6.3531Y-2.7059
X6.3531Y-2.8059
X6.3531Y-2.9059
X6.3531Y-3.0059
X6.3531Y-3.1059
X6.3531Y-3.2059
X6.3531Y-3.3059
X6.3531Y-3.4059
X6.3531Y-3.6059
X6.3531Y-3.7059
X6.3531Y-3.8059
X6.3531Y-3.9059
X6.3531Y-4.0059
X6.3531Y-4.1059
X6.3531Y-4.2059
X6.3531Y-4.3059
X6.3531Y-4.4059
X6.3531Y-4.5059
X6.3531Y-4.6059
X6.3531Y-4.7059
X6.3531Y-4.8059
X6.3531Y-4.9059
X6.3531Y-5.0059
X6.4531Y-2.7059
X6.4531Y-2.8059
X6.4531Y-2.9059
X6.4531Y-3.0059
X6.4531Y-3.1059
X6.4531Y-3.2059
X6.4531Y-3.3059
X6.4531Y-3.4059
X6.4531Y-3.6059
X6.4531Y-3.7059
X6.4531Y-3.8059
X6.4531Y-3.9059
X6.4531Y-4.0059
X6.4531Y-4.1059
X6.4531Y-4.2059
X6.4531Y-4.3059
X6.4531Y-4.4059
X6.4531Y-4.5059
X6.4531Y-4.6059
X6.4531Y-4.7059
X6.4531Y-4.8059
X6.4531Y-4.9059
X6.4531Y-5.0059
X8.1531Y-2.3459
X8.1531Y-2.4459
X8.1531Y-2.5459
X8.1531Y-2.6459
X8.1531Y-2.7459
X8.1531Y-2.8459
X8.1531Y-2.9459
X8.1531Y-3.0459
X8.1531Y-3.1459
X8.1531Y-3.2459
X8.1531Y-3.4059
X8.1531Y-3.5059
X8.1531Y-3.6059
X8.1531Y-3.7059
X8.1531Y-3.8059
X8.1531Y-3.9059
X8.1531Y-4.0059
X8.1531Y-4.1059
X8.1531Y-4.2059
X8.1531Y-4.3059
X8.1531Y-4.4059
X8.1531Y-4.5059
X8.1531Y-4.6059
X8.1531Y-4.7059
X8.1531Y-4.8059
X8.1531Y-4.9059
X8.1531Y-5.0059
X8.2531Y-2.3459
X8.2531Y-2.4459
X8.2531Y-2.5459
X8.2531Y-2.6459
X8.2531Y-2.7459
X8.2531Y-2.8459
X8.2531Y-2.9459
X8.2531Y-3.0459
X8.2531Y-3.1459
X8.2531Y-3.2459
X8.2531Y-3.4059
X8.2531Y-3.5059
X8.2531Y-3.6059
X8.2531Y-3.7059
X8.2531Y-3.8059
X8.2531Y-3.9059
X8.2531Y-4.0059
X8.2531Y-4.1059
X8.2531Y-4.2059
X8.2531Y-4.3059
X8.2531Y-4.4059
X8.2531Y-4.5059
X8.2531Y-4.6059
X8.2531Y-4.7059
X8.2531Y-4.8059
X8.2531Y-4.9059
X8.2531Y-5.0059
X8.8484Y-0.8868
X8.8642Y-1.5201
X8.8642Y-1.6201
X8.8642Y-1.7201
X8.8642Y-1.8201
X8.8642Y-1.9201
X8.8642Y-2.0201
X8.8642Y-2.1201
X8.8642Y-2.2201
X8.8642Y-2.6618
X8.8642Y-2.7618
X8.8642Y-2.8618
X8.8642Y-2.9618
X8.8642Y-3.0618
X8.8642Y-3.1618
X8.8642Y-3.2618
X8.8642Y-3.3618
X8.8642Y-3.8429
X8.8642Y-3.9429
X8.8642Y-4.0429
X8.8642Y-4.1429
X8.8642Y-4.2429
X8.8642Y-4.3429
X8.8642Y-4.4429
X8.8642Y-4.5429
X8.8839Y-5.024
X8.8839Y-5.124
X8.8839Y-5.224
X8.8839Y-5.324
X8.8839Y-5.424
X8.8839Y-5.524
X8.8839Y-5.624
X8.8839Y-5.724
X8.9469Y-0.8868
X8.9642Y-1.5201
X8.9642Y-2.6618
X8.9642Y-3.8429
X8.9839Y-5.024
X9.0642Y-1.5201
X9.0642Y-2.6618
X9.0642Y-3.8429
X9.0839Y-5.024
X9.3642Y-1.5201
X9.3642Y-1.6201
X9.3642Y-1.7201
X9.3642Y-1.8201
X9.3642Y-1.9201
X9.3642Y-2.0201
X9.3642Y-2.1201
X9.3642Y-2.2201
X9.3642Y-2.6618
X9.3642Y-2.7618
X9.3642Y-2.8618
X9.3642Y-2.9618
X9.3642Y-3.0618
X9.3642Y-3.1618
X9.3642Y-3.2618
X9.3642Y-3.3618
X9.3642Y-3.8429
X9.3642Y-3.9429
X9.3642Y-4.0429
X9.3642Y-4.1429
X9.3642Y-4.2429
X9.3642Y-4.3429
X9.3642Y-4.4429
X9.3642Y-4.5429
X9.3839Y-5.024
X9.3839Y-5.124
X9.3839Y-5.224
X9.3839Y-5.324
X9.3839Y-5.424
X9.3839Y-5.524
X9.3839Y-5.624
X9.3839Y-5.724
T5
X3.8929Y-1.3657
X3.8929Y-1.4657
X3.8929Y-1.5657
X3.8929Y-1.6657
X5.5157Y-1.3657
X5.5157Y-1.4657
X5.5157Y-1.5657
X5.5157Y-1.6657
T6
X9.2291Y-0.8661
X9.3291Y-0.8661
X9.4291Y-0.8661
T7
X2.6159Y-0.8858
X2.6159Y-1.2087
X2.8128Y-0.8858
X2.8128Y-1.2087
X3.0096Y-0.8858
X3.0096Y-1.2087
X3.2065Y-0.8858
X3.2065Y-1.2087
M30
